<?xml version="1.0" encoding="utf-8"?>
<!-- Generator: Adobe Illustrator 26.0.1, SVG Export Plug-In . SVG Version: 6.00 Build 0)  -->
<svg version="1.1" id="Ebene_1" xmlns="http://www.w3.org/2000/svg" xmlns:xlink="http://www.w3.org/1999/xlink" x="0px" y="0px"
	 viewBox="0 0 590 500" style="enable-background:new 0 0 590 500;" xml:space="preserve">
<style type="text/css">
	.st0{opacity:7.000000e-02;fill:#4E8DCC;enable-background:new    ;}
	.st1{fill:#FFFFFF;}
	.st2{fill:#DCE8F5;}
	.st3{fill:none;stroke:#FFFFFF;stroke-width:7;stroke-linecap:round;stroke-miterlimit:10;}
	.st4{fill:#F3F7FB;}
	.st5{fill:#CADDF0;}
	.st6{fill:none;stroke:#EDF4FA;stroke-width:5;stroke-linecap:round;stroke-miterlimit:10;}
	.st7{fill:#E4EEF7;}
	.st8{fill:#AFCCE8;}
	.st9{fill:none;stroke:#EDF4FA;stroke-width:3;stroke-linecap:round;stroke-miterlimit:10;}
	.st10{fill:#95BBE0;}
	.st11{fill:none;stroke:#EDF4FA;stroke-linecap:round;stroke-miterlimit:10;}
	.st12{fill:#A6C6E5;}
	.st13{fill:#7AA9D9;}
	.st14{fill:none;stroke:#EDF4FA;stroke-width:0.5;stroke-linecap:round;stroke-miterlimit:10;}
	.st15{fill:#83AFDB;}
	.st16{fill:#6098D1;}
</style>
<path id="Background_Shape" class="st0" d="M234.1,484C85.6,434.5-7.8,183.8,175.4,73.7s341-25.8,362.2,91.3S382.6,533.5,234.1,484z
	"/>
<image style="overflow:visible;opacity:0.3;enable-background:new    ;" width="463" height="463" xlink:href="25EE5C4A03D878E.png"  transform="matrix(1 0 0 1 58.68 42.3745)">
</image>
<path class="st1" d="M136.4,92.4h308c9.4,0,17,7.6,17,17v308c0,9.4-7.6,17-17,17h-308c-9.4,0-17-7.6-17-17v-308
	C119.4,100,127,92.4,136.4,92.4z"/>
<path class="st2" d="M136.4,92.4h308c9.4,0,17,7.6,17,17v9.8l0,0h-342l0,0v-9.8C119.4,100,127,92.4,136.4,92.4z"/>
<line class="st3" x1="147.7" y1="105.8" x2="293.5" y2="105.8"/>
<path class="st4" d="M175.9,146.6h229c6.6,0,11.9,5.3,11.9,11.9v229c0,6.6-5.3,11.9-11.9,11.9h-229c-6.6,0-11.9-5.3-11.9-11.9v-229
	C164.1,151.9,169.4,146.6,175.9,146.6z"/>
<path class="st5" d="M416.8,165.8H164.1v-7.3c0-6.6,5.3-11.9,11.9-11.9l0,0h229c6.5,0,11.9,5.3,11.9,11.8c0,0,0,0,0,0L416.8,165.8z"
	/>
<line class="st6" x1="180.8" y1="156.2" x2="277.5" y2="156.2"/>
<path class="st7" d="M203.2,186.5h174.5c3.1,0,5.6,2.5,5.6,5.6v174.5c0,3.1-2.5,5.6-5.6,5.6H203.2c-3.1,0-5.6-2.5-5.6-5.6V192.1
	C197.6,189,200.1,186.5,203.2,186.5z"/>
<path class="st8" d="M383.3,196H197.6v-3.9c0-3.1,2.5-5.6,5.6-5.6h174.4c3.1,0,5.6,2.5,5.6,5.6c0,0,0,0,0,0V196z"/>
<line class="st9" x1="208.5" y1="191.6" x2="246.4" y2="191.6"/>
<path class="st5" d="M228.4,217.9h124.1c1.9,0,3.5,1.6,3.5,3.5v123c0,1.9-1.6,3.5-3.5,3.5H228.4c-1.9,0-3.5-1.6-3.5-3.5v-123
	C224.9,219.5,226.5,217.9,228.4,217.9z"/>
<path class="st10" d="M224.9,223.5v-2.2c0-1.9,1.5-3.5,3.5-3.5c0,0,0,0,0,0h124.1c1.9,0,3.5,1.5,3.5,3.5c0,0,0,0,0,0v2.1
	L224.9,223.5z"/>
<line class="st11" x1="231.4" y1="220.7" x2="247.6" y2="220.7"/>
<rect x="247.6" y="241.5" class="st12" width="85.7" height="85.7"/>
<rect x="247.6" y="241.5" class="st13" width="85.7" height="4.1"/>
<line class="st14" x1="253.2" y1="243.5" x2="262.6" y2="243.5"/>
<rect x="263.3" y="257.9" class="st15" width="55.7" height="55.7"/>
<rect x="263.3" y="257.9" class="st16" width="55.7" height="3.8"/>
</svg>
