<?xml version="1.0" encoding="utf-8"?>
<!-- Generator: Adobe Illustrator 26.0.1, SVG Export Plug-In . SVG Version: 6.00 Build 0)  -->
<svg version="1.1" id="Ebene_1" xmlns="http://www.w3.org/2000/svg" xmlns:xlink="http://www.w3.org/1999/xlink" x="0px" y="0px"
	 viewBox="0 0 590 500" style="enable-background:new 0 0 590 500;" xml:space="preserve">
<style type="text/css">
	.st0{fill:#DDEBE5;}
	.st1{fill:#78B198;}
	.st2{fill:none;stroke:#9AC4B2;stroke-width:3;stroke-linecap:round;stroke-miterlimit:10;}
	.st3{fill:none;stroke:#F5F6F6;stroke-width:3;stroke-linecap:round;stroke-miterlimit:10;}
	.st4{fill:#FAEFED;}
	.st5{fill:#E9BFB7;}
	.st6{fill:none;stroke:#E9BFB7;stroke-width:3;stroke-linecap:round;stroke-miterlimit:10;}
	.st7{fill:#DCE8F5;}
	.st8{fill:#71A4D6;}
	.st9{fill:none;stroke:#71A4D6;stroke-width:3;stroke-linecap:round;stroke-miterlimit:10;}
	.st10{fill:#FFFFFF;}
	.st11{fill:none;stroke:#EDF4FA;stroke-width:3;stroke-linecap:round;stroke-miterlimit:10;}
	.st12{fill-rule:evenodd;clip-rule:evenodd;fill:#7BA3D2;}
	.st13{fill-rule:evenodd;clip-rule:evenodd;fill:#B0C8E4;}
	.st14{fill:none;stroke:#7BA3D2;stroke-miterlimit:8;}
	.st15{fill:none;stroke:#666666;stroke-width:4;stroke-miterlimit:10;}
	.st16{fill-rule:evenodd;clip-rule:evenodd;fill:#C27071;}
</style>
<g>
	<path class="st0" d="M450.3,119.1h104.4c3.1,0,5.6,2.5,5.6,5.6v73.4c0,3.1-2.5,5.6-5.6,5.6H450.3c-3.1,0-5.6-2.5-5.6-5.6v-73.4
		C444.7,121.6,447.2,119.1,450.3,119.1z"/>
	<path class="st1" d="M450.3,119.1h104.4c3.1,0,5.6,2.5,5.6,5.6v3.9l0,0H444.7l0,0v-3.9C444.7,121.6,447.2,119.1,450.3,119.1
		C450.3,119.1,450.3,119.1,450.3,119.1z"/>
	<line class="st2" x1="457.7" y1="142.3" x2="541.1" y2="142.3"/>
	<line class="st2" x1="457.7" y1="154.9" x2="514.6" y2="154.9"/>
	<line class="st2" x1="457.7" y1="168.6" x2="535.1" y2="168.6"/>
	<line class="st2" x1="457.7" y1="182.2" x2="528.4" y2="182.2"/>
</g>
<path class="st3" d="M199.9,201.7"/>
<g>
	<path class="st4" d="M450.3,237.4h104.4c3.1,0,5.6,2.5,5.6,5.6v73.4c0,3.1-2.5,5.6-5.6,5.6H450.3c-3.1,0-5.6-2.5-5.6-5.6V243
		C444.7,239.9,447.2,237.4,450.3,237.4z"/>
	<path class="st5" d="M450.3,237.4h104.4c3.1,0,5.6,2.5,5.6,5.6v3.9l0,0H444.7l0,0V243C444.7,239.9,447.2,237.4,450.3,237.4
		C450.3,237.4,450.3,237.4,450.3,237.4z"/>
	<line class="st6" x1="457.7" y1="260.5" x2="541.1" y2="260.5"/>
	<line class="st6" x1="457.7" y1="273.2" x2="514.6" y2="273.2"/>
	<line class="st6" x1="457.7" y1="286.8" x2="535.1" y2="286.8"/>
	<line class="st6" x1="457.7" y1="300.4" x2="528.4" y2="300.4"/>
</g>
<g>
	<path class="st7" d="M165.6,178.8H270c3.1,0,5.6,2.5,5.6,5.6v73.4c0,3.1-2.5,5.6-5.6,5.6H165.6c-3.1,0-5.6-2.5-5.6-5.6v-73.4
		C160,181.4,162.5,178.8,165.6,178.8z"/>
	<path class="st8" d="M165.6,178.8H270c3.1,0,5.6,2.5,5.6,5.6v3.9l0,0H160l0,0v-3.9C160,181.4,162.5,178.8,165.6,178.8
		C165.6,178.8,165.6,178.8,165.6,178.8z"/>
	<line class="st9" x1="172.9" y1="202" x2="256.3" y2="202"/>
	<line class="st9" x1="172.9" y1="214.7" x2="229.8" y2="214.7"/>
	<line class="st9" x1="172.9" y1="228.3" x2="250.3" y2="228.3"/>
	<line class="st9" x1="172.9" y1="241.9" x2="243.7" y2="241.9"/>
</g>
<path class="st7" d="M229.4,318.2h104.4c3.1,0,5.6,2.5,5.6,5.6v73.4c0,3.1-2.5,5.6-5.6,5.6H229.4c-3.1,0-5.6-2.5-5.6-5.6v-73.4
	C223.8,320.7,226.3,318.2,229.4,318.2z"/>
<path class="st8" d="M229.4,318.2h104.4c3.1,0,5.6,2.5,5.6,5.6v3.9l0,0H223.8l0,0v-3.9C223.8,320.7,226.3,318.2,229.4,318.2
	C229.4,318.2,229.4,318.2,229.4,318.2z"/>
<line class="st9" x1="236.8" y1="341.3" x2="326.5" y2="341.3"/>
<line class="st9" x1="236.8" y1="354" x2="293.7" y2="354"/>
<g>
	<path class="st10" d="M239.6,349h84.1c2.5,0,4.5,2.5,4.5,5.6v26c0,3.1-2,5.6-4.5,5.6h-84.1c-2.5,0-4.5-2.5-4.5-5.6v-26
		C235.1,351.6,237.1,349,239.6,349z"/>
	<path class="st8" d="M239.6,349.1h84.1c2.5,0,4.5,2.5,4.5,5.6v3.9l0,0h-93.2l0,0v-3.9C235.1,351.6,237.1,349.1,239.6,349.1
		C239.6,349.1,239.6,349.1,239.6,349.1z"/>
	<line class="st11" x1="240.5" y1="354.1" x2="259.6" y2="354.1"/>
</g>
<line class="st9" x1="241.8" y1="366.6" x2="319.2" y2="366.6"/>
<line class="st9" x1="241.8" y1="378.2" x2="312.5" y2="378.2"/>
<g>
	<path class="st12" d="M29.6,189.4c0,5.8,19.7,10.6,44,10.6s44-4.7,44-10.6v63.4c0,5.8-19.7,10.6-44,10.6s-44-4.7-44-10.6V189.4z"/>
	<ellipse class="st13" cx="73.7" cy="189.4" rx="44" ry="10.6"/>
	<path class="st14" d="M117.7,189.4c0,5.8-19.7,10.6-44,10.6s-44-4.7-44-10.6c0-5.8,19.7-10.6,44-10.6S117.7,183.6,117.7,189.4v63.4
		c0,5.8-19.7,10.6-44,10.6s-44-4.7-44-10.6v-63.4"/>
</g>
<line class="st15" x1="117.7" y1="221.1" x2="160" y2="221.2"/>
<polygon class="st16" points="298.4,220.3 362.8,160.9 427.2,220.3 362.8,279.7 "/>
<line class="st15" x1="275.6" y1="220.3" x2="301.8" y2="220.3"/>
<line class="st15" x1="392.8" y1="192.8" x2="444.7" y2="161.5"/>
<line class="st15" x1="444.7" y1="279.7" x2="392.4" y2="252.4"/>
<line class="st15" x1="214.6" y1="263.3" x2="285.3" y2="318.2"/>
</svg>
