<svg xmlns="http://www.w3.org/2000/svg" width="348.34" height="300" viewBox="0 0 348.34 300"><defs><style>.cls-1{fill:#569d7e;opacity:0.1;isolation:isolate;}.cls-2{fill:#5e6977;}.cls-3{fill:#868e99;}.cls-4{fill:#ebecee;}.cls-5{fill:#afb4bb;}.cls-6{fill:#915b3c;}.cls-7{fill:#191847;}.cls-8{fill:#ab837c;}.cls-9{fill:#5c63ab;}.cls-10{fill:#e4afa5;}</style></defs><g id="Ebene_2" data-name="Ebene 2"><g id="visual.teaser-more-usecase"><g id="visual-search-usecase-teaser"><path id="Weird_Shape" data-name="Weird Shape" class="cls-1" d="M109.44,248.4c42.64-19.91,5.31-63.51-10.09-113.52s2.35-108.15-40.3-88.25S-11.08,143.87,4.33,193.88,66.79,268.3,109.44,248.4Z"></path><path id="Weird_Shape-2" data-name="Weird Shape" class="cls-1" d="M266.31,144.86c-26.77-30.42-55.39-16.11-82.94,11.47s-86.7,52.75-59.92,83.18,113.9,38,141.45,10.38S293.08,175.28,266.31,144.86Z"></path><path id="Background_Shape" data-name="Background Shape" class="cls-1" d="M218.77,14c94,44.79,92.76,201.67-40.52,221.67-108,16.19-136.17-38.1-125-106.83S140.77-36.32,218.77,14Z"></path><g id="fernglass"><path class="cls-2" d="M160.59,83.92c-2,.17-3.11-3-3.37-6s.35-6.32,2.3-6.48,3.11,3,3.37,6S162.54,83.75,160.59,83.92Zm-1-10.76c-.25.15-.94,1.75-.69,4.61s1.19,4.33,1.52,4.42c.26-.14.94-1.74.7-4.61S160,73.26,159.64,73.16Z"></path><rect class="cls-3" x="160.8" y="70.28" width="45.06" height="10.79" transform="matrix(1, -0.09, 0.09, 1, -5.8, 15.96)"></rect><rect class="cls-3" x="205.67" y="61.81" width="60.79" height="18.68" transform="translate(-5.22 20.45) rotate(-4.91)"></rect><rect class="cls-3" x="266.21" y="51.72" width="77.19" height="27.07" transform="translate(-4.46 26.31) rotate(-4.91)"></rect><path class="cls-4" d="M344.3,74.14c-1.24.11-4-4-4.7-11.87s1.37-12.4,2.61-12.51,4,4,4.7,11.88S345.54,74,344.3,74.14Z"></path><path class="cls-2" d="M342.34,51.24c1,.92,2.76,4.46,3.28,10.51s-.67,9.84-1.44,10.92c-.95-.93-2.76-4.47-3.28-10.51s.66-9.85,1.44-10.92m-.24-2.77c-2.73.23-4.43,6.46-3.79,13.91s3.37,13.29,6.1,13.06,4.43-6.46,3.8-13.91-3.38-13.3-6.11-13.06Z"></path><ellipse class="cls-5" cx="264.35" cy="68.73" rx="4.97" ry="13.53" transform="translate(-4.91 22.86) rotate(-4.91)"></ellipse><rect class="cls-5" x="264.34" y="55.11" width="1.94" height="27.07" transform="translate(-4.9 22.94) rotate(-4.91)"></rect><ellipse class="cls-3" cx="266.35" cy="68.55" rx="4.97" ry="13.53" transform="translate(-4.89 23.03) rotate(-4.91)"></ellipse><ellipse class="cls-5" cx="203.85" cy="73.92" rx="3.43" ry="9.34" transform="translate(-5.57 17.7) rotate(-4.91)"></ellipse><rect class="cls-5" x="203.84" y="64.49" width="1.94" height="18.68" transform="translate(-5.56 17.79) rotate(-4.91)"></rect><ellipse class="cls-3" cx="205.78" cy="73.75" rx="3.43" ry="9.34" transform="translate(-5.55 17.87) rotate(-4.91)"></ellipse><ellipse class="cls-3" cx="160.88" cy="77.61" rx="1.98" ry="5.4" transform="translate(-6.05 14.04) rotate(-4.91)"></ellipse></g><g id="Head_Front" data-name="Head Front"><g id="Head"><path id="Head-2" class="cls-6" d="M104.15,153.43,110.79,101C104,94.26,99.07,85.75,98.91,75.75c-.45-28.8,40-25.92,48.94-12.14s11.22,50.52,1.42,54c-3.91,1.37-12.64-.42-21.75-4.9l8.74,38Z"></path></g><path id="Hair" class="cls-7" d="M111.19,101.26h0a16.56,16.56,0,0,1,5.14-11.08A7.85,7.85,0,0,1,114.66,86a8.17,8.17,0,0,1,7.54-8.73,8.31,8.31,0,0,1,7.54,3.48L131,80a82.29,82.29,0,0,0,12.12-7.93,22,22,0,0,0,4.23-4.69,13.23,13.23,0,0,0,2.08-5.59,10,10,0,0,0-2.84-8.55c-4-4.2-11.9-6.35-20.54-5.6a38.08,38.08,0,0,0-12.09,3A20.14,20.14,0,1,0,95.61,72.77a20.61,20.61,0,0,0,2.21-.31,36.14,36.14,0,0,0,4.58,20.85,24.35,24.35,0,0,0,4.52,5.92,6.14,6.14,0,0,0,4.27,2Z"></path></g><path class="cls-6" d="M240.93,77.25a1,1,0,0,0-.77-.73c-4-.91-5.5,4.46-8.3,4.29l-14.5,1.27s-.06,8.5.27,12.75l-4.34,23.56L231,120.52l-1.2-19.33Q242.11,80.82,240.93,77.25Z"></path><path id="Coat_Back" data-name="Coat Back" class="cls-8" d="M81,157.92l4.6-10.84c42.55-12.91,98.46,21.16,107.2,12.83C196.71,148,208.54,128.76,215,101l14.75,2.24a5.19,5.19,0,0,1,4.48,6c-5.2,25.41-18.55,76-28.41,81-8.16,4.16-31.33,2.14-44.58-.45C126.35,182.87,105.41,174.62,81,157.92Z"></path><path id="Shirt" class="cls-9" d="M93.05,278.37l64.3-3c4.68-.4,2.58-6.32,2.25-10.43-4.06-40-9.16-80.74-25.4-137.25-9.34.57-18.26-1.24-27-4.14C86.16,164.89,92.3,213.07,93.05,278.37Z"></path><path id="Coat_Front" data-name="Coat Front" class="cls-10" d="M74.9,233.75c.42-19.59.19-45.68,7.55-69.68-32.5,4.51-25.36-39.84-12.24-41.13,12-1.19,22.06,1,40.43-.6a13.58,13.58,0,0,1,2.21,0l9.92.6S163.19,226,161.32,281.45c0,1.28-1.55,20.21-21.67,18.43-38-3.34-52.21-19-52.21-19C76.67,272.85,74.77,239.68,74.9,233.75Z"></path><path id="shadow" class="cls-8" d="M117.49,149s4.09,7.29,1.81,46.2c-1.74,27.3,29.39,68.1,29.39,68.1S137.62,275,126.05,278.69A6.92,6.92,0,0,1,118.3,276C97.18,245.68,91,210.71,88.68,187.83,91,167.71,76.77,150.21,117.49,149Z"></path><path class="cls-6" d="M141.88,243l15.31,17.18s16.69.52,18.11,6.25c1,1.32-2.12,1.45-5.19,1.93s-6,1.3-4.76,3.94c2.43,5.32,15.7,16.62,14.18,19.44-2.25,4.19-12.31,3.23-17.8.65-10.27-4.83-14.54-9.8-21.64-22.87-5.57-10.26-17.68-20.87-17.68-20.87Z"></path><path id="Clothes" class="cls-10" d="M122.41,141.23s-2,7.44-1.81,46.42c0,27.35,33.71,66.06,33.71,66.06S144.18,265.94,133,270.42a7.29,7.29,0,0,1-8.33-2.22c-22.82-28.22-30.28-54.47-36-77.1C88.17,170.69,76.1,144.38,122.41,141.23Z"></path></g></g></g></svg>