<svg xmlns="http://www.w3.org/2000/svg" xmlns:xlink="http://www.w3.org/1999/xlink" width="298.47" height="300" viewBox="0 0 298.47 300"><defs><style>.cls-1,.cls-19,.cls-20,.cls-23,.cls-3,.cls-4{fill:none;}.cls-2,.cls-8{fill:#e4afa5;}.cls-2{opacity:0.15;isolation:isolate;}.cls-3,.cls-4{stroke:#d1cad8;}.cls-19,.cls-23,.cls-3,.cls-4{stroke-linecap:round;}.cls-18,.cls-19,.cls-20,.cls-23,.cls-3,.cls-4{stroke-miterlimit:10;}.cls-3{stroke-width:2.5px;}.cls-18,.cls-19,.cls-20,.cls-23,.cls-4{stroke-width:1.5px;}.cls-5{fill:#33273f;}.cls-6{fill:#293240;}.cls-7{fill:#ba8b72;}.cls-9{clip-path:url(#clip-path);}.cls-10{fill:#8b6856;}.cls-11{fill:#bbd8cb;}.cls-12{fill:#d7d9dd;}.cls-13{fill:#569d7e;}.cls-14{fill:#fff;}.cls-15{fill:#364355;}.cls-16{fill:#857198;}.cls-17{fill:#d1cad8;}.cls-18,.cls-21{fill:#e0dce5;}.cls-18,.cls-19,.cls-20{stroke:#664e7e;}.cls-22{fill:#664e7e;}.cls-23{stroke:#c2b8cb;}</style><clipPath id="clip-path"><path class="cls-1" d="M156.69,149.52a21,21,0,0,1-2.68-5.59,28.54,28.54,0,0,1-.46-7.38c.07-2.88.09-5.77.23-8.64a30.07,30.07,0,0,0-8.19-.78c-2.5.1-5-.16-7.5,0a.88.88,0,0,0-.56.16.81.81,0,0,0-.19.54c-.34,3.89,0,7.83-.27,11.72a24.17,24.17,0,0,1-1.36,6.77C133.13,153.12,157.9,151.56,156.69,149.52Z"></path></clipPath></defs><g id="Ebene_2" data-name="Ebene 2"><g id="visual.study"><g id="bg.shapes"><path id="Weird_Shape" data-name="Weird Shape" class="cls-2" d="M121,284.11c40.92-19.38-1.67-50.53-22.81-88.62S88.6,110,47.68,129.41s-60.14,82.73-39,120.81S80.11,303.48,121,284.11Z"></path><path id="Background_Shape" data-name="Background Shape" class="cls-2" d="M151.79,288.18c-86.54-7-158.53-132.3-65.52-218S273.78,9.36,295,71,238.34,295.15,151.79,288.18Z"></path></g><g id="ring.01"><path class="cls-3" d="M85.71,54.85A103.17,103.17,0,0,1,124,38.31"></path><path class="cls-3" d="M42.19,127.54A103,103,0,0,1,52.94,92.36"></path><path class="cls-3" d="M79.61,220.08a104.11,104.11,0,0,1-27.39-34.3"></path><path class="cls-3" d="M231.84,196.48A104.19,104.19,0,0,1,211,219.73"></path><path class="cls-3" d="M241,100.57a103.05,103.05,0,0,1,5.22,16.69"></path><path class="cls-3" d="M164.86,38A103.26,103.26,0,0,1,211,59.82"></path></g><g id="ring.02"><path class="cls-4" d="M82.76,50.79a108.27,108.27,0,0,1,31-15"></path><path class="cls-4" d="M37.06,128.29A107.94,107.94,0,0,1,48.56,89.9"></path><path class="cls-4" d="M83.54,229.3a109,109,0,0,1-36.89-43.52"></path><path class="cls-4" d="M236.24,198.92a109.14,109.14,0,0,1-28,29.29"></path><path class="cls-4" d="M245.71,98.73a108.24,108.24,0,0,1,6.92,25.48"></path><path class="cls-4" d="M177.38,36a108.27,108.27,0,0,1,33.73,17.47"></path></g><g id="charakter"><path class="cls-5" d="M173.18,176.05c-15.67,7.46-61.6,8.28-64.57-23.73-1-11.43,2.9-34.93,4.32-43.12,2.56-14.84,12.13-31.34,32.71-31.34,11.94,0,23.64,3.82,28.89,20.24C180.06,115.39,192,170.51,173.18,176.05Z"></path><path class="cls-6" d="M234.51,258a34.82,34.82,0,0,1-7.35,6.64c-14.41,10.05-31.64,16.93-48.71,21.36-15.25,4-31.24,3.78-46.84,2.24-10.66-1-21.27-4.35-31.55-7.42A185.13,185.13,0,0,1,69.18,269c-7.77-3.94-14.73-8.82-15.91-18.12-.47-3.66.34-7.71,3.14-10.19,3.37-3,8.47-2.89,13-2.53,25.77,2,50.73,10.67,76.67,10.83,14.48.09,28-3.67,41.9-7.08,10.74-2.63,22.65-5.52,33.83-5C232,237.4,242,248.62,234.51,258Z"></path><path class="cls-7" d="M112.44,236.27c-.29-.64-.57-1.3-.87-2a97,97,0,0,1-6.85-22c-.5-2.73-1-5.72-3.1-7.55-2.88-2.54-8.5-2.21-12.08-1.73a6.44,6.44,0,0,0-4.43,2.15c-1.67,2.23-1.5,7.28-1.57,10-.4,16.38,12.56,29.93,23.11,41,2,2.13,4.23,4.28,7,5.14s6.39,0,7.62-2.71c.9-2,.35-4.26-.37-6.3a41.37,41.37,0,0,0-5.18-9.76A35.77,35.77,0,0,1,112.44,236.27Z"></path><path class="cls-7" d="M176.11,236.27c.29-.64.57-1.3.87-2a96.45,96.45,0,0,0,6.84-22c.51-2.73,1-5.72,3.11-7.55,2.88-2.54,8.5-2.21,12.08-1.73a6.44,6.44,0,0,1,4.43,2.15c1.67,2.23,1.5,7.28,1.57,10,.4,16.38-12.56,29.93-23.11,41-2,2.13-4.23,4.28-7,5.14s-6.39,0-7.62-2.71c-.9-2-.35-4.26.36-6.3a41.77,41.77,0,0,1,5.19-9.76A36.46,36.46,0,0,0,176.11,236.27Z"></path><path class="cls-8" d="M196.22,188.06c-4.47-8.24-9.28-16.29-13.48-24.67-2.57-5.13-5-10.73-12.41-12.51-6.36-1.24-10.17-2-12.66-2.46a72.92,72.92,0,0,0-12.25-1.09c-.2,0-9.51.34-13.74,1.09-2.5.44-6.67,1-12.53,2.46-8.13,2-10.63,7.1-13.34,12.51-4.2,8.38-9,16.43-13.48,24.67-4,7.31-8.35,14.89-9.84,23.16a2.1,2.1,0,0,0,1.69,2.44c6.07,1.17,12.25,2.36,18.42,2.52,1.48-4.89,4.29-9.26,7.06-13.55q2.52-3.9,5.08-7.78c1.14,3.27,2.51,6.48,3.75,10,2.56,7.34,1,17.45-1.19,24.54-1.64,5.22-4.51,9.36-6.41,14.41a2.07,2.07,0,0,0-.18,1.24,2,2,0,0,0,1.13,1.09c9.33,4.87,19.79,6.34,30,7.09l2.63.19v0h.36v0l2.64-.19c10.22-.75,20.68-2.22,30-7.09a2,2,0,0,0,1.13-1.09,2.06,2.06,0,0,0-.17-1.24c-1.91-5.05-4.77-9.19-6.41-14.41-2.24-7.09-3.76-17.2-1.19-24.54,1.14-3.27,2.39-6.25,3.47-9.25,1.52,2.32,3,4.65,4.56,7,2.77,4.29,5.58,8.66,7.06,13.55,6.17-.16,12.35-1.35,18.42-2.52a2.1,2.1,0,0,0,1.69-2.44C204.57,203,200.18,195.37,196.22,188.06Z"></path><path class="cls-7" d="M145.42,169c5,0,13.46-8.79,13.54-12.89.09-4.59-3.93-7.85-5-12.13a28.54,28.54,0,0,1-.46-7.38c.07-2.88.09-5.77.23-8.64a30.07,30.07,0,0,0-8.19-.78c-2.5.1-5-.16-7.5,0a.88.88,0,0,0-.56.16.81.81,0,0,0-.19.54c-.34,3.89,0,7.83-.27,11.72a19.59,19.59,0,0,1-3.14,10.15c-1.36,1.92-1.53,4.17-1.53,6.37C132.4,159.13,140.37,169,145.42,169Z"></path><g class="cls-9"><path class="cls-10" d="M153.88,141.72a38.53,38.53,0,0,1-.38-6.82c-.06-2.88.09-5.77.23-8.64a30.07,30.07,0,0,0-8.19-.78c-2.5.1-5-.16-7.5,0a.91.91,0,0,0-.57.16.8.8,0,0,0-.18.54c-.34,3.89,0,7.86-.22,11.75a26.41,26.41,0,0,1-.41,3.32c.39.35,4,4.39,8.76,4.39S152.36,142.8,153.88,141.72Z"></path></g><path class="cls-7" d="M164.4,112.47a35.13,35.13,0,0,0-1.68-10.41c-4.42-12.9-20.63-15.87-30.23-6.43-9.26,9.11-6.66,28.86,1.57,39.56,1.28,1.66,5.52,7.83,11.36,7.83s9.6-4.84,11.92-7.77C162.06,129.31,164.56,120.45,164.4,112.47Z"></path><path class="cls-5" d="M167.35,123.91c13.37-26.67-4.61-37.35-21.93-36.64-17.12.69-30,19-18.61,30.94-2.25-9.74,3.5-15.66,9-22.07,2.77,6.48,8.84,10.45,15.32,12.71,12.14,4.23,12.47,11.24,12,14.85A4.86,4.86,0,0,0,167.35,123.91Z"></path><polygon class="cls-11" points="97.56 200.63 96.76 202.54 192.62 202.54 191.66 200.4 97.56 200.63"></polygon><path class="cls-7" d="M143.42,295.69c3.58.83,7.39,1.14,10.74,1.73,1.51.26,3,.53,4.54.69a70.84,70.84,0,0,0,7.29.27h5.3a4.53,4.53,0,0,0,5-3.05,66.36,66.36,0,0,0,3.39-6,15.2,15.2,0,0,1,1.6-3.38c.78-1.07,1.54-2.46,1-3.8-.66-1.58-2.69-2-4.4-2a31.19,31.19,0,0,0-4.32.23c-5.66.69-11.06,2.93-16.74,3.56a67.49,67.49,0,0,1-10.92-.06c-2.9-.15-7.36-.89-10,.77-1.06.69-2.7,2.33-2.83,3.64-.16,1.63,1.67,3.35,2.83,4.2A20.19,20.19,0,0,0,143.42,295.69Z"></path><path class="cls-10" d="M179.59,289.6l.11-.23a15.2,15.2,0,0,1,1.6-3.38c.78-1.07,1.54-2.46,1-3.8-.66-1.58-2.69-2-4.4-2a31.19,31.19,0,0,0-4.32.23c-5.66.69-11.06,2.93-16.74,3.56a54.71,54.71,0,0,1-9,0c-2.17,1-10,3.51-13.67,6.87a10.36,10.36,0,0,0,1.76,1.63,20.19,20.19,0,0,0,7.47,3.16c2.26.52,4.61.84,6.88,1.15,7.58-1.33,15-3.67,22.44-5.51Q176.16,290.49,179.59,289.6Z"></path><path class="cls-12" d="M186,263.11H103.34l-5.92-61.54a1.86,1.86,0,0,1,1.84-2.06h90.83a1.87,1.87,0,0,1,1.84,2.06Z"></path><path class="cls-13" d="M155.8,297.75c3.16-.31,7.15-1,9.3-3.28a9.38,9.38,0,0,0,2.27-6.57c0-2.37-1.87-4.24-4-5.3a18.22,18.22,0,0,1,15.69-1,8.77,8.77,0,0,1,1.59.8c6.72,4.31,2.28,12.71-3.25,15.67a16.26,16.26,0,0,1-8.24,1.9c-2.3-.08-3.84-.34-6.12-.61C160.3,299.05,158.92,298.39,155.8,297.75Z"></path><path class="cls-14" d="M186.65,264.85h-84l-6-61.54a1.88,1.88,0,0,1,1.86-2.06H190.8a1.88,1.88,0,0,1,1.87,2.06Z"></path><rect class="cls-12" x="102.69" y="264.85" width="83.91" height="3.73"></rect><path class="cls-10" d="M139.23,281.66c-1.52-.79-5.9-3.3-8.06-4.43-5.7.44-15.79,2.62-21.49,3a30.79,30.79,0,0,0-4.28.58c-1.68.34-3.6,1.1-4,2.78a2.49,2.49,0,0,0,0,.72c4.29,1.35,8.59,2.61,12.85,3.84,5.81,1.67,11.65,3.66,17.58,5.21l.06,0c3.18-1.19,6.86-2.21,10.23-3.69a21.6,21.6,0,0,0,6.05-3.77C144.54,283.85,140.48,282.32,139.23,281.66Z"></path><path class="cls-15" d="M125.42,291.52c-3.74-1.13-7.45-2.32-11.14-3.38-18.54-5.34-37.83-11.33-54-22.18-3.72-2.51-7.46-6.21-9-10.47C47.09,244.28,59,235.6,69.16,239.82c17,7.05,31,19.7,47,28.73,2.68,1.51,5.36,3.07,8.06,4.64,2.32,1.35,4.65,2.71,7,4Z"></path><path class="cls-15" d="M163,291.52c3.73-1.13,7.44-2.32,11.14-3.38,18.54-5.34,37.83-11.33,54-22.18,3.72-2.51,7.47-6.21,9-10.47,4.16-11.21-7.75-19.89-17.91-15.67-17,7.05-30.95,19.7-47,28.73-2.67,1.51-5.35,3.07-8.05,4.64-2.32,1.35-4.65,2.71-7,4"></path><path class="cls-7" d="M157.29,277.23c-2.68,1.53-5.37,3-8.08,4.43s-19.12,7.1-14.65,13c.88,1.16,2.54,1.29,4,1.31,8.36.08,16.48-2,24.49-4.45"></path><path class="cls-7" d="M144.67,295.69c-3.58.83-7.39,1.14-10.73,1.73-1.51.26-3,.53-4.54.69a71,71,0,0,1-7.29.27h-5.3a6,6,0,0,1-2.83-.46,6.14,6.14,0,0,1-2.2-2.59,66.26,66.26,0,0,1-3.38-6c-.6-1.38-1.23-2.72-.42-4.16a7,7,0,0,1,1.61-1.79,13.06,13.06,0,0,1,2.53-1.77c3-1.53,6.13-.63,9.23.17a73.4,73.4,0,0,0,9.92,2.16,67.48,67.48,0,0,0,10.92-.06c2.91-.15,7.36-.89,9.95.77,1.06.69,2.71,2.33,2.84,3.64.16,1.63-1.67,3.35-2.84,4.2A20.12,20.12,0,0,1,144.67,295.69Z"></path><path class="cls-13" d="M131.93,297.75c-3.15-.31-7.15-1-9.3-3.28a9.32,9.32,0,0,1-2.26-6.57c0-2.37,1.86-4.24,4-5.3a18.22,18.22,0,0,0-15.69-1,8.77,8.77,0,0,0-1.59.8c-6.72,4.31-2.28,12.71,3.25,15.67a16.28,16.28,0,0,0,8.24,1.9c2.3-.08,3.84-.34,6.12-.61C127.43,299.05,128.81,298.39,131.93,297.75Z"></path><path class="cls-12" d="M147.92,239.49h-6.46a3.16,3.16,0,0,1-3.29-2.75l-.31-6.07a3.13,3.13,0,0,1,3.28-3.17h7.1a3.13,3.13,0,0,1,3.28,3.17l-.31,6.07A3.16,3.16,0,0,1,147.92,239.49Zm-6.75-10.87a2,2,0,0,0-2.13,2l.26,6.07a2,2,0,0,0,2.13,1.8H148a2,2,0,0,0,2.13-1.8l.26-6.07a2,2,0,0,0-2.13-2Z"></path><path class="cls-12" d="M148,237.63h-6.52a1,1,0,0,1-1.07-.91l-.21-6a1,1,0,0,1,1.07-1h6.94a1,1,0,0,1,1.07,1l-.21,6A1,1,0,0,1,148,237.63Zm-6.7-7a.11.11,0,0,0-.12.11l.16,6a.11.11,0,0,0,.12.1H148a.11.11,0,0,0,.12-.1l.16-6a.11.11,0,0,0-.12-.11Z"></path><path class="cls-12" d="M147,235.89h-4.7l-.08-4.3h4.86Zm-4-.67h3.22l0-2.92H143Z"></path></g><g id="puzzle"><path class="cls-16" d="M65.29,57.67a4.27,4.27,0,0,0-.12,1.46.7.7,0,0,1-.87.74l-5.56-1.42a2.81,2.81,0,0,0-3.42,2l-1.44,5.64a.71.71,0,0,1-1.14.35,4.12,4.12,0,0,0-1.54-.76,4.24,4.24,0,0,0-2.11,8.21,4.07,4.07,0,0,0,1.73.07.7.7,0,0,1,.82.86L50.2,80.49a2.81,2.81,0,0,0,2,3.42l6,1.54a.71.71,0,0,0,.87-.74,3.81,3.81,0,0,1,.12-1,3.63,3.63,0,1,1,7,1.8,4.5,4.5,0,0,1-.41,1,.7.7,0,0,0,.41,1.06l6,1.54a2.82,2.82,0,0,0,3.42-2l1.53-6a.7.7,0,0,0-.77-.86,3.48,3.48,0,0,1-1.15-.1,3.71,3.71,0,0,1,1.84-7.19,3.5,3.5,0,0,1,1.06.47A.71.71,0,0,0,79.26,73l1.53-6a2.81,2.81,0,0,0-2-3.42L73.2,62.15a.7.7,0,0,1-.4-1.07,4.19,4.19,0,1,0-7.51-3.41Z"></path><path class="cls-17" d="M64.3,55.71a4.27,4.27,0,0,0-.11,1.46.7.7,0,0,1-.87.74l-5.56-1.42a2.81,2.81,0,0,0-3.42,2l-1.45,5.65a.7.7,0,0,1-1.13.35,4,4,0,0,0-1.55-.76A4.24,4.24,0,0,0,48.11,72a4,4,0,0,0,1.72.07.71.71,0,0,1,.83.86l-1.45,5.64a2.81,2.81,0,0,0,2,3.42l6,1.54a.71.71,0,0,0,.87-.74,3.79,3.79,0,0,1,.11-1,3.63,3.63,0,1,1,6.62,2.78.71.71,0,0,0,.41,1.06l6,1.54a2.81,2.81,0,0,0,3.42-2l1.53-6a.69.69,0,0,0-.76-.86,3.54,3.54,0,0,1-1.16-.1,3.71,3.71,0,0,1,1.85-7.19,3.44,3.44,0,0,1,1.05.47A.71.71,0,0,0,78.27,71l1.53-6a2.81,2.81,0,0,0-2-3.43l-5.56-1.42a.7.7,0,0,1-.4-1.07,4.2,4.2,0,1,0-7.51-3.41Z"></path></g><g id="chemistry"><path class="cls-18" d="M44.93,159.06l.8-7.5a1.63,1.63,0,0,0-.67-1.51L39,145.61a1.66,1.66,0,0,0-1.65-.18l-6.89,3a1.68,1.68,0,0,0-1,1.34l-.8,7.49a1.67,1.67,0,0,0,.67,1.52l6.09,4.44a1.64,1.64,0,0,0,1.64.17L44,160.39A1.64,1.64,0,0,0,44.93,159.06Z"></path><path class="cls-19" d="M32.41,131.89l5.73,4.18a2.05,2.05,0,0,0,2,.22l6.48-2.87"></path><path class="cls-18" d="M51.56,174l.8-7.5a1.65,1.65,0,0,0-.67-1.51l-6.09-4.44a1.66,1.66,0,0,0-1.65-.18l-6.89,3.05a1.65,1.65,0,0,0-1,1.34l-.81,7.49a1.69,1.69,0,0,0,.67,1.52L42,178.23a1.66,1.66,0,0,0,1.65.17l6.89-3.05A1.68,1.68,0,0,0,51.56,174Z"></path><line class="cls-19" x1="52.71" y1="165.81" x2="60.74" y2="162.25"></line><line class="cls-19" x1="20.6" y1="161.8" x2="28.62" y2="158.25"></line><line class="cls-19" x1="38.32" y1="171.74" x2="38.91" y2="166.22"></line><line class="cls-19" x1="48.73" y1="172.39" x2="49.32" y2="166.87"></line><line class="cls-19" x1="41.9" y1="157.5" x2="42.49" y2="151.98"></line><line class="cls-19" x1="39.11" y1="136.58" x2="38.18" y2="145.31"></line><circle class="cls-20" cx="16.11" cy="163.78" r="2.81"></circle><circle class="cls-20" cx="65.2" cy="160.28" r="2.81"></circle><circle class="cls-20" cx="51.37" cy="131.1" r="2.81"></circle><circle class="cls-20" cx="28.29" cy="128.62" r="2.81"></circle></g><g id="bulb"><path class="cls-21" d="M160,25.51A13.86,13.86,0,1,0,138.4,37v6.17A2.64,2.64,0,0,0,141,45.83h10.18a2.64,2.64,0,0,0,2.64-2.64V37A13.85,13.85,0,0,0,160,25.51Z"></path><line class="cls-19" x1="141.22" y1="49.4" x2="151.01" y2="49.4"></line><line class="cls-19" x1="142.18" y1="52.51" x2="150.06" y2="52.51"></line><path class="cls-22" d="M147.89,54.85a.47.47,0,0,1,.46.57,2.29,2.29,0,0,1-4.43,0,.47.47,0,0,1,.46-.57Z"></path><g id="_Radiale_Wiederholung_" data-name="&lt;Radiale Wiederholung&gt;"><line class="cls-23" x1="146.08" y1="4.46" x2="146.07" y2="1.29"></line></g><g id="_Radiale_Wiederholung_2" data-name="&lt;Radiale Wiederholung&gt;"><line class="cls-23" x1="163.59" y1="12.85" x2="166.07" y2="10.86"></line></g><g id="_Radiale_Wiederholung_3" data-name="&lt;Radiale Wiederholung&gt;"><line class="cls-23" x1="167.96" y1="31.77" x2="171.06" y2="32.47"></line></g><g id="_Radiale_Wiederholung_4" data-name="&lt;Radiale Wiederholung&gt;"><line class="cls-23" x1="124.33" y1="31.87" x2="121.23" y2="32.59"></line></g><g id="_Radiale_Wiederholung_5" data-name="&lt;Radiale Wiederholung&gt;"><line class="cls-23" x1="128.61" y1="12.93" x2="126.11" y2="10.96"></line></g><g id="_Radiale_Wiederholung_6" data-name="&lt;Radiale Wiederholung&gt;"><line class="cls-19" x1="155.78" y1="6.86" x2="158.63" y2="1.19"></line></g><g id="_Radiale_Wiederholung_7" data-name="&lt;Radiale Wiederholung&gt;"><line class="cls-19" x1="167.09" y1="21.6" x2="173.3" y2="20.29"></line></g><g id="_Radiale_Wiederholung_8" data-name="&lt;Radiale Wiederholung&gt;"><line class="cls-19" x1="125.35" y1="20.82" x2="119.19" y2="19.31"></line></g><g id="_Radiale_Wiederholung_9" data-name="&lt;Radiale Wiederholung&gt;"><line class="cls-19" x1="137.21" y1="6.51" x2="134.55" y2="0.75"></line></g><path class="cls-19" d="M147.57,49.4V25.45a2.82,2.82,0,1,1,2.82,2.82h-8.65a2.82,2.82,0,1,1,2.82-2.82v24"></path></g><g id="todo"><rect class="cls-16" x="228.91" y="136.15" width="42" height="53.24" rx="3.37" transform="translate(99.48 -94.76) rotate(26.63)"></rect><rect class="cls-21" x="228.36" y="134.48" width="42" height="53.24" rx="2.5" transform="translate(98.68 -94.69) rotate(26.63)"></rect><line class="cls-19" x1="252.05" y1="144.49" x2="266.45" y2="151.71"></line><line class="cls-19" x1="247.25" y1="154.06" x2="264.47" y2="162.7"></line><path class="cls-19" d="M248.72,144.59l-.32.64a1.11,1.11,0,0,1-1.49.5l-4.11-2.06a1.11,1.11,0,0,1-.49-1.49l2.06-4.11a1.11,1.11,0,0,1,1.49-.5l2.54,1.27"></path><polyline class="cls-19" points="245.63 140.78 246.13 142.29 250.2 140.94"></polyline><path class="cls-19" d="M244,154.08l-.32.64a1.11,1.11,0,0,1-1.5.49l-4.1-2.06a1.1,1.1,0,0,1-.5-1.49l2.06-4.11a1.1,1.1,0,0,1,1.49-.49l2.54,1.27"></path><polyline class="cls-19" points="240.86 150.26 241.36 151.77 245.42 150.42"></polyline><path class="cls-19" d="M239.15,163.65l-.32.64a1.11,1.11,0,0,1-1.49.49l-4.11-2.06a1.12,1.12,0,0,1-.5-1.49l2.06-4.11a1.12,1.12,0,0,1,1.49-.5l2.54,1.28"></path><polyline class="cls-19" points="236.06 159.83 236.56 161.34 240.62 159.99"></polyline><path class="cls-19" d="M234.35,173.21l-.32.64a1.12,1.12,0,0,1-1.49.5l-4.11-2.06a1.12,1.12,0,0,1-.5-1.49l2.06-4.11a1.12,1.12,0,0,1,1.49-.5l2.54,1.28"></path><polyline class="cls-19" points="231.26 169.4 231.76 170.91 235.82 169.56"></polyline><line class="cls-19" x1="242.45" y1="163.63" x2="252.31" y2="168.57"></line><line class="cls-19" x1="237.65" y1="173.2" x2="250.98" y2="179.88"></line></g><g id="diagram"><rect class="cls-17" x="207.01" y="71.28" width="8.19" height="15.59" rx="1" transform="translate(16.42 -34.58) rotate(9.74)"></rect><rect class="cls-17" x="219.22" y="62.12" width="8.19" height="21.51" rx="1" transform="translate(15.55 -36.73) rotate(9.74)"></rect><rect class="cls-17" x="228.92" y="68.59" width="8.19" height="25.3" rx="1" transform="translate(17.1 -38.25) rotate(9.74)"></rect><rect class="cls-17" x="241.59" y="56.54" width="8.19" height="31.71" rx="1" transform="matrix(0.99, 0.17, -0.17, 0.99, 15.79, -40.52)"></rect><line class="cls-19" x1="231.29" y1="83.44" x2="248.6" y2="71.2"></line><line class="cls-19" x1="222.34" y1="75.98" x2="227.18" y2="82.82"></line><line class="cls-19" x1="208.57" y1="82.27" x2="218.43" y2="75.31"></line><circle class="cls-19" cx="220.72" cy="73.68" r="2.81"></circle><circle class="cls-19" cx="228.95" cy="84.99" r="2.81"></circle><circle class="cls-19" cx="250.87" cy="69.54" r="2.81"></circle><circle class="cls-19" cx="206.12" cy="83.65" r="2.81"></circle></g></g></g></svg>