<svg version="1.1" id="Layer_1" xmlns="http://www.w3.org/2000/svg" xmlns:xlink="http://www.w3.org/1999/xlink" x="0px" y="0px"
	 width="100%" viewBox="0 0 393 423" enable-background="new 0 0 393 423" xml:space="preserve">
<path fill="#FAFAFA" opacity="1.000000" stroke="none" 
	d="
M394.000000,2.999999 
	C394.000000,142.354233 394.000000,281.708466 393.617004,421.186401 
	C391.298248,421.623199 389.362549,422.209595 387.426666,422.210266 
	C261.126740,422.254944 134.826813,422.253357 8.526884,422.242737 
	C6.779250,422.242584 5.031630,422.076080 3.005590,421.973083 
	C3.005590,418.579742 3.005590,415.766937 3.005590,412.954132 
	C3.005580,281.488892 2.992790,150.023666 3.047698,18.558441 
	C3.050143,12.705496 3.668519,6.852808 4.000000,1.000000 
	C6.041667,1.000000 8.083333,1.000000 10.252247,1.369207 
	C14.266450,1.996002 18.153406,2.253592 22.040361,2.511181 
	C22.026907,2.007454 22.013454,1.503727 22.000000,1.000000 
	C24.370558,1.000000 26.741116,1.000000 29.246529,1.375641 
	C37.243954,2.010381 45.106525,2.269478 52.969093,2.528576 
	C52.979393,2.019051 52.989697,1.509525 53.000000,1.000000 
	C77.354225,1.000000 101.708458,1.000000 126.222092,1.373533 
	C131.243820,2.006898 136.106155,2.266731 140.968475,2.526563 
	C140.978973,2.017709 140.989487,1.508854 141.000000,1.000000 
	C164.020889,1.000000 187.041794,1.000000 210.222290,1.375613 
	C217.243683,2.010046 224.105453,2.268866 230.967239,2.527686 
	C230.978165,2.018458 230.989090,1.509229 231.000000,1.000000 
	C234.030594,1.000000 237.061188,1.000000 240.236389,1.372857 
	C244.910385,2.005606 249.439774,2.265500 253.969147,2.525393 
	C253.979431,2.016929 253.989716,1.508464 254.000000,1.000000 
	C259.354919,1.000000 264.709869,1.000000 270.214966,1.343150 
	C272.722412,2.865731 275.081268,4.060142 277.000000,1.000000 
	C279.370575,1.000000 281.741119,1.000000 284.190033,1.328005 
	C285.489563,2.008829 286.710754,2.361649 287.931946,2.714468 
	C287.954651,2.142980 287.977325,1.571490 288.000000,1.000000 
	C292.024536,1.000000 296.049103,1.000000 300.227783,1.375615 
	C307.243774,2.010091 314.105682,2.268952 320.967560,2.527812 
	C320.978363,2.018542 320.989197,1.509271 321.000000,1.000000 
	C324.030609,1.000000 327.061188,1.000000 330.236877,1.375688 
	C338.246216,2.011161 346.110474,2.270946 353.974762,2.530732 
	C353.983185,2.020488 353.991608,1.510244 354.000000,1.000000 
	C355.388885,1.000000 356.777802,1.000000 358.273926,1.375630 
	C366.912292,2.011097 375.443451,2.270936 383.974609,2.530774 
	C383.983063,2.020516 383.991516,1.510258 384.000000,1.000000 
	C384.750000,1.000000 385.500000,1.000000 386.309082,1.360561 
	C388.912079,2.147414 391.456055,2.573706 394.000000,2.999999 
M162.677338,404.648193 
	C184.381577,404.736511 206.085815,404.824860 228.565338,405.022003 
	C229.060471,405.074799 229.644501,404.974426 230.037842,405.202637 
	C242.371719,412.358856 255.721191,412.088318 269.093323,410.012299 
	C274.889709,409.112427 280.449097,406.685822 287.037628,404.898865 
	C316.799835,404.898865 346.562012,404.898865 376.336853,404.898865 
	C376.336853,276.361847 376.336853,148.366089 376.336853,20.452530 
	C257.052307,20.452530 138.194550,20.452530 19.280312,20.452530 
	C19.280312,148.743042 19.280312,276.618713 19.280312,404.716217 
	C45.332268,404.716217 71.111687,404.716217 96.978844,405.578827 
	C98.481796,406.385406 99.975189,407.870697 101.489220,407.892029 
	C114.608162,408.076935 127.735840,407.780884 140.850433,408.083160 
	C148.317444,408.255249 155.307327,406.822205 162.677338,404.648193 
z"/>
<path fill="#454343" opacity="1.000000" stroke="none" 
	d="
M3.500000,1.000000 
	C3.668519,6.852808 3.050143,12.705496 3.047698,18.558441 
	C2.992790,150.023666 3.005580,281.488892 3.005590,412.954132 
	C3.005590,415.766937 3.005590,418.579742 3.005590,421.973083 
	C5.031630,422.076080 6.779250,422.242584 8.526884,422.242737 
	C134.826813,422.253357 261.126740,422.254944 387.426666,422.210266 
	C389.362549,422.209595 391.298248,421.623199 393.617004,421.655090 
	C393.666656,422.666656 393.451965,423.783630 392.976013,423.909058 
	C391.885101,424.196472 390.666656,424.000000 389.500000,424.000000 
	C260.000000,424.000000 130.500000,424.000000 1.000000,424.000000 
	C1.000000,284.333344 0.993497,144.666672 1.102928,5.000081 
	C1.103910,3.747436 -0.962960,0.685187 3.500000,1.000000 
z"/>
<path fill="#454343" opacity="1.000000" stroke="none" 
	d="
M383.531372,1.000000 
	C383.991516,1.510258 383.983063,2.020516 383.974609,2.530774 
	C375.443451,2.270936 366.912292,2.011097 358.690552,1.375630 
	C367.020905,1.000000 375.041809,1.000000 383.531372,1.000000 
z"/>
<path fill="#454343" opacity="1.000000" stroke="none" 
	d="
M353.531372,1.000000 
	C353.991608,1.510244 353.983185,2.020488 353.974762,2.530732 
	C346.110474,2.270946 338.246216,2.011161 330.690979,1.375688 
	C338.354248,1.000000 345.708496,1.000000 353.531372,1.000000 
z"/>
<path fill="#454343" opacity="1.000000" stroke="none" 
	d="
M52.531372,1.000000 
	C52.989697,1.509525 52.979393,2.019051 52.969093,2.528576 
	C45.106525,2.269478 37.243954,2.010381 29.690693,1.375641 
	C37.354252,1.000000 44.708500,1.000000 52.531372,1.000000 
z"/>
<path fill="#454343" opacity="1.000000" stroke="none" 
	d="
M320.531616,1.000000 
	C320.989197,1.509271 320.978363,2.018542 320.967560,2.527812 
	C314.105682,2.268952 307.243774,2.010091 300.690948,1.375615 
	C307.354401,1.000000 313.708801,1.000000 320.531616,1.000000 
z"/>
<path fill="#454343" opacity="1.000000" stroke="none" 
	d="
M230.531586,1.000000 
	C230.989090,1.509229 230.978165,2.018458 230.967239,2.527686 
	C224.105453,2.268866 217.243683,2.010046 210.690948,1.375613 
	C217.354401,1.000000 223.708786,1.000000 230.531586,1.000000 
z"/>
<path fill="#454343" opacity="1.000000" stroke="none" 
	d="
M140.535355,1.000000 
	C140.989487,1.508854 140.978973,2.017709 140.968475,2.526563 
	C136.106155,2.266731 131.243820,2.006898 126.690750,1.373533 
	C131.356903,1.000000 135.713806,1.000000 140.535355,1.000000 
z"/>
<path fill="#454343" opacity="1.000000" stroke="none" 
	d="
M253.536819,1.000000 
	C253.989716,1.508464 253.979431,2.016929 253.969147,2.525393 
	C249.439774,2.265500 244.910385,2.005606 240.690506,1.372857 
	C245.024551,1.000000 249.049088,1.000000 253.536819,1.000000 
z"/>
<path fill="#454343" opacity="1.000000" stroke="none" 
	d="
M21.541931,1.000000 
	C22.013454,1.503727 22.026907,2.007454 22.040361,2.511181 
	C18.153406,2.253592 14.266450,1.996002 10.689747,1.369207 
	C14.361287,1.000000 17.722574,1.000000 21.541931,1.000000 
z"/>
<path fill="#454343" opacity="1.000000" stroke="none" 
	d="
M394.000000,2.499998 
	C391.456055,2.573706 388.912079,2.147414 386.684082,1.360560 
	C389.333344,1.333331 391.666656,1.666665 394.000000,2.499998 
z"/>
<path fill="#454343" opacity="1.000000" stroke="none" 
	d="
M276.571533,1.000000 
	C275.081268,4.060142 272.722412,2.865731 270.682556,1.343150 
	C272.714355,1.000000 274.428711,1.000000 276.571533,1.000000 
z"/>
<path fill="#868585" opacity="1.000000" stroke="none" 
	d="
M287.625000,1.000000 
	C287.977325,1.571490 287.954651,2.142980 287.931946,2.714468 
	C286.710754,2.361649 285.489563,2.008829 284.634186,1.328005 
	C285.750000,1.000000 286.500000,1.000000 287.625000,1.000000 
z"/>
<path fill="#020202" opacity="1.000000" stroke="none" 
	d="
M227.790054,404.913177 
	C206.085815,404.824860 184.381577,404.736511 162.752838,404.374817 
	C173.872864,398.686829 182.050156,390.542084 182.127258,377.753723 
	C182.465637,321.632660 182.403503,265.507874 182.173660,209.385727 
	C182.126968,197.982880 175.886368,189.695358 166.085190,184.048965 
	C157.719894,179.229752 148.523438,177.968063 139.118118,177.866104 
	C126.461998,177.728897 113.803276,177.818420 101.145737,177.843414 
	C99.868950,177.845932 98.592606,178.074097 96.802162,178.247238 
	C96.802162,180.304855 96.801537,182.092819 96.802254,183.880768 
	C96.831795,257.492584 96.861458,331.104401 96.891106,404.716217 
	C71.111687,404.716217 45.332268,404.716217 19.280312,404.716217 
	C19.280312,276.618713 19.280312,148.743042 19.280312,20.452530 
	C138.194550,20.452530 257.052307,20.452530 376.336853,20.452530 
	C376.336853,148.366089 376.336853,276.361847 376.336853,404.898865 
	C346.562012,404.898865 316.799835,404.898865 286.564758,404.585724 
	C294.876495,397.840851 299.582397,389.259399 299.593475,378.297211 
	C299.624786,347.305389 299.809479,316.311646 299.522980,285.322449 
	C299.383392,270.226562 291.663788,260.848755 276.835663,257.964478 
	C270.632111,256.757843 263.738861,256.690247 257.624268,258.109100 
	C251.495712,259.531158 245.946838,263.451508 240.483856,266.111389 
	C240.483856,245.100235 240.483856,223.199539 240.483856,200.756165 
	C260.197876,200.756165 279.605255,200.756165 299.175293,200.756165 
	C299.175293,192.858994 299.175293,185.515366 299.175293,178.100906 
	C270.639526,178.100906 242.554794,178.100906 214.224884,178.100906 
	C214.224884,215.417770 214.224884,252.449234 214.224884,289.667572 
	C222.980026,289.667572 231.388550,289.667572 239.900787,289.667572 
	C240.129181,288.460175 240.274246,287.479614 240.502777,286.518921 
	C242.435104,278.395782 249.292404,274.387573 259.589691,275.346771 
	C267.953308,276.125824 272.968445,280.935242 273.015045,289.215668 
	C273.178284,318.206696 273.109192,347.199188 273.075165,376.191040 
	C273.069244,381.225159 270.408630,384.788239 265.930420,386.707977 
	C260.384094,389.085571 254.572083,389.294495 248.873734,387.204834 
	C242.744705,384.957275 240.242218,381.290527 240.192963,374.649078 
	C240.114410,364.058228 240.171982,353.466370 240.171982,342.852509 
	C231.070358,342.852509 222.657776,342.852509 213.879623,342.852509 
	C213.879623,350.169281 213.872711,357.150574 213.881927,364.131866 
	C213.888733,369.296936 213.930252,374.462006 213.932205,379.627075 
	C213.936340,390.589142 220.104355,398.165161 227.790054,404.913177 
z"/>
<path fill="#EFEEE8" opacity="1.000000" stroke="none" 
	d="
M96.934975,405.147522 
	C96.861458,331.104401 96.831795,257.492584 96.802254,183.880768 
	C96.801537,182.092819 96.802162,180.304855 96.802162,178.247238 
	C98.592606,178.074097 99.868950,177.845932 101.145737,177.843414 
	C113.803276,177.818420 126.461998,177.728897 139.118118,177.866104 
	C148.523438,177.968063 157.719894,179.229752 166.085190,184.048965 
	C175.886368,189.695358 182.126968,197.982880 182.173660,209.385727 
	C182.403503,265.507874 182.465637,321.632660 182.127258,377.753723 
	C182.050156,390.542084 173.872864,398.686829 162.476471,404.067444 
	C155.307327,406.822205 148.317444,408.255249 140.850433,408.083160 
	C127.735840,407.780884 114.608162,408.076935 101.489220,407.892029 
	C99.975189,407.870697 98.481796,406.385406 96.934975,405.147522 
M156.106216,330.500031 
	C156.105301,292.198090 156.117645,253.896118 156.093124,215.594177 
	C156.087738,207.190903 152.578857,202.343872 144.495193,201.437515 
	C137.646225,200.669586 130.642807,201.279144 123.432358,201.279144 
	C123.432358,262.521576 123.432358,323.693481 123.432358,384.994995 
	C130.370148,384.994995 137.033646,385.380768 143.633362,384.896881 
	C151.800644,384.298035 156.064148,379.220459 156.092331,370.967651 
	C156.137253,357.811920 156.105515,344.655945 156.106216,330.500031 
z"/>
<path fill="#EDEBE6" opacity="1.000000" stroke="none" 
	d="
M228.177704,404.967590 
	C220.104355,398.165161 213.936340,390.589142 213.932205,379.627075 
	C213.930252,374.462006 213.888733,369.296936 213.881927,364.131866 
	C213.872711,357.150574 213.879623,350.169281 213.879623,342.852509 
	C222.657776,342.852509 231.070358,342.852509 240.171982,342.852509 
	C240.171982,353.466370 240.114410,364.058228 240.192963,374.649078 
	C240.242218,381.290527 242.744705,384.957275 248.873734,387.204834 
	C254.572083,389.294495 260.384094,389.085571 265.930420,386.707977 
	C270.408630,384.788239 273.069244,381.225159 273.075165,376.191040 
	C273.109192,347.199188 273.178284,318.206696 273.015045,289.215668 
	C272.968445,280.935242 267.953308,276.125824 259.589691,275.346771 
	C249.292404,274.387573 242.435104,278.395782 240.502777,286.518921 
	C240.274246,287.479614 240.129181,288.460175 239.900787,289.667572 
	C231.388550,289.667572 222.980026,289.667572 214.224884,289.667572 
	C214.224884,252.449234 214.224884,215.417770 214.224884,178.100906 
	C242.554794,178.100906 270.639526,178.100906 299.175293,178.100906 
	C299.175293,185.515366 299.175293,192.858994 299.175293,200.756165 
	C279.605255,200.756165 260.197876,200.756165 240.483856,200.756165 
	C240.483856,223.199539 240.483856,245.100235 240.483856,266.111389 
	C245.946838,263.451508 251.495712,259.531158 257.624268,258.109100 
	C263.738861,256.690247 270.632111,256.757843 276.835663,257.964478 
	C291.663788,260.848755 299.383392,270.226562 299.522980,285.322449 
	C299.809479,316.311646 299.624786,347.305389 299.593475,378.297211 
	C299.582397,389.259399 294.876495,397.840851 286.104004,404.612640 
	C280.449097,406.685822 274.889709,409.112427 269.093323,410.012299 
	C255.721191,412.088318 242.371719,412.358856 230.037842,405.202637 
	C229.644501,404.974426 229.060471,405.074799 228.177704,404.967590 
z"/>
<path fill="#030303" opacity="1.000000" stroke="none" 
	d="
M156.106216,331.000061 
	C156.105515,344.655945 156.137253,357.811920 156.092331,370.967651 
	C156.064148,379.220459 151.800644,384.298035 143.633362,384.896881 
	C137.033646,385.380768 130.370148,384.994995 123.432358,384.994995 
	C123.432358,323.693481 123.432358,262.521576 123.432358,201.279144 
	C130.642807,201.279144 137.646225,200.669586 144.495193,201.437515 
	C152.578857,202.343872 156.087738,207.190903 156.093124,215.594177 
	C156.117645,253.896118 156.105301,292.198090 156.106216,331.000061 
z"/>
</svg>